<svg version="1.1" xmlns="http://www.w3.org/2000/svg" xmlns:xlink="http://www.w3.org/1999/xlink" width="1280.000000pt" height="640.000000pt" viewBox="0,0,256,128"><g fill="#6c94dc" fill-rule="nonzero" stroke="none" stroke-width="1" stroke-linecap="butt" stroke-linejoin="miter" stroke-miterlimit="10" stroke-dasharray="" stroke-dashoffset="0" font-family="none" font-weight="none" font-size="none" text-anchor="none" style="mix-blend-mode: normal"><g transform="translate(0.00782,0.08856) scale(0.2,0.2)"><g transform="translate(0,640) scale(0.1,-0.1)"><path d="M6053,3465c-106,-30 -226,-102 -376,-227c-32,-26 -62,-48 -66,-48c-5,0 -11,29 -13,64c-7,77 -38,140 -87,173c-64,44 -173,22 -212,-41c-24,-39 -24,-73 0,-109c31,-48 57,-60 112,-53c27,4 49,4 49,1c0,-3 -7,-19 -15,-34c-37,-73 -136,-111 -237,-92c-88,16 -165,50 -214,94c-41,38 -47,48 -51,93c-5,46 -3,53 22,72c37,29 89,29 110,0c8,-13 18,-40 22,-61c6,-43 15,-51 43,-42c16,5 20,15 20,56c0,57 -18,98 -56,128c-21,16 -41,21 -91,21c-58,0 -68,-3 -93,-29c-18,-18 -36,-52 -46,-90c-10,-33 -23,-61 -30,-61c-6,0 -73,31 -147,69c-236,119 -204,115 -882,115c-555,-1 -584,-2 -670,-22c-105,-25 -217,-63 -370,-125c-109,-45 -229,-76 -242,-63c-9,8 8,37 28,48c8,4 31,14 52,22c32,13 37,19 37,46c0,23 -6,33 -22,39c-49,18 -126,-26 -198,-113c-38,-47 -49,-54 -70,-49c-44,10 -111,42 -142,68c-16,14 -37,25 -47,25c-10,0 -38,-20 -64,-45l-46,-46l-903,3c-931,3 -1036,0 -1125,-38c-35,-14 -43,-38 -17,-48c9,-3 404,-6 878,-6c475,0 932,-3 1017,-6l154,-7l36,-38c20,-22 45,-39 55,-39c11,0 36,14 56,30c51,42 116,70 165,70c39,0 44,-4 74,-46c98,-143 329,-126 725,54c125,56 159,65 226,56l48,-7l-22,-36c-48,-76 -19,-202 52,-231c25,-11 38,-10 74,4c82,31 106,109 62,199c-14,30 -26,61 -26,70c0,23 84,83 144,103c72,24 181,15 276,-23c90,-37 100,-57 38,-73c-134,-34 -188,-80 -188,-160c0,-65 68,-130 135,-130c59,0 130,50 123,87c-4,19 -22,21 -110,8c-45,-7 -47,-6 -54,19c-8,35 21,84 66,107c66,36 150,22 363,-57c157,-59 385,-126 517,-154c343,-70 540,-13 855,250c192,160 268,195 405,187c149,-8 236,-67 141,-95c-52,-16 -84,-43 -130,-111c-55,-81 -104,-121 -146,-121c-38,0 -46,12 -33,55c19,66 -16,115 -80,115c-65,0 -102,-44 -102,-122c1,-100 80,-168 197,-168c66,0 162,26 220,60l32,19l78,-35c43,-18 88,-34 100,-34c12,0 52,15 88,34l66,34l72,-31c137,-58 291,-47 351,24c60,71 56,171 -7,209c-84,51 -157,-12 -130,-112c10,-38 10,-38 -19,-38c-42,0 -63,14 -150,96c-62,59 -119,102 -196,150c-2,2 -1,12 3,24c10,31 79,60 147,60c107,0 230,-63 456,-234c179,-135 217,-157 368,-211c87,-32 106,-35 203,-35c261,0 449,44 936,220c115,41 183,45 219,11c29,-28 35,-75 12,-107c-11,-15 -27,-19 -73,-19c-49,0 -58,-3 -61,-19c-6,-30 26,-46 87,-46c126,0 188,105 119,203c-25,35 -68,57 -138,72l-55,11l50,32c159,103 359,109 465,14l43,-38l-37,-35c-21,-19 -44,-46 -52,-61c-19,-37 -18,-104 3,-139c17,-29 67,-59 98,-59c24,0 67,25 95,55c23,25 25,34 24,116c-2,88 -1,89 22,89c38,0 142,-38 219,-79c120,-65 203,-92 335,-111c139,-20 291,22 364,99c42,43 80,41 165,-9c37,-22 80,-40 95,-40c15,0 56,18 92,39c51,31 80,41 132,47c37,4 489,5 1004,2l938,-5l6,34c4,19 3,37 -1,41c-4,4 -426,7 -938,7c-961,0 -1049,3 -1150,41c-80,30 -104,30 -148,-5c-53,-43 -105,-64 -134,-54c-13,4 -38,31 -57,58c-44,67 -91,90 -184,90c-75,0 -104,-13 -104,-46c0,-18 6,-19 70,-13c78,8 120,-4 145,-42c20,-32 19,-51 -5,-59c-36,-11 -165,14 -280,55c-338,121 -717,184 -1115,184c-359,1 -525,-30 -767,-145c-94,-44 -154,-67 -160,-61c-5,5 -13,34 -17,65c-4,30 -15,66 -23,79c-25,38 -83,61 -136,55c-55,-6 -91,-32 -116,-82c-22,-45 -13,-68 27,-73c22,-3 31,4 48,33c30,51 51,59 83,34c45,-36 52,-119 13,-170c-15,-20 -117,-86 -154,-100c-154,-58 -321,-5 -348,112l-7,27l75,-2c93,-1 117,15 117,80c0,50 -35,99 -87,120c-109,46 -210,-29 -228,-171c-4,-32 -11,-55 -18,-55c-14,0 -61,32 -172,115c-96,72 -198,120 -296,141c-94,19 -135,13 -237,-39l-83,-42l-32,19c-125,73 -219,91 -324,61zM3630,3376c0,-19 -12,-31 -54,-55c-59,-34 -95,-38 -190,-20c-90,16 -223,-18 -486,-127c-97,-40 -128,-48 -196,-52c-48,-3 -96,0 -117,7c-37,12 -64,37 -54,48c4,3 50,16 104,29c54,13 180,51 279,84c257,84 382,109 567,109l147,1zM4370,3384c132,-25 242,-69 462,-185c278,-146 294,-153 396,-151c45,0 92,4 102,7c26,8 26,-11 0,-25c-11,-6 -56,-16 -100,-22c-181,-25 -364,24 -778,211c-111,50 -240,103 -285,117c-96,30 -109,36 -115,52c-6,18 218,15 318,-4zM8750,3381c0,-12 -9,-22 -22,-27c-13,-3 -140,-58 -283,-121c-331,-147 -379,-166 -495,-196c-127,-34 -173,-40 -220,-32c-57,10 -50,29 19,55c33,12 90,40 128,62c155,91 386,198 508,235c84,26 185,41 278,42c80,1 87,-1 87,-18zM9445,3380c120,-15 293,-59 467,-120c79,-28 186,-57 238,-66c106,-18 138,-36 105,-60c-25,-19 -81,-34 -125,-34c-53,0 -126,21 -310,90c-182,68 -301,100 -373,100c-60,0 -107,19 -135,55c-32,40 -28,55 11,50c17,-3 73,-9 122,-15zM10652,3233c23,-21 23,-40 -2,-53c-24,-13 -70,-3 -70,16c0,14 34,54 47,54c3,0 15,-7 25,-17zM2225,3216c16,-12 17,-16 6,-30c-17,-20 -65,-21 -81,-1c-28,34 35,61 75,31zM9345,3179c11,-33 -4,-88 -26,-100c-34,-18 -49,-4 -49,45c0,35 5,48 22,60c30,22 45,20 53,-5zM3540,3149c6,-10 10,-34 10,-53c0,-31 -3,-36 -24,-36c-22,0 -26,6 -32,45c-3,25 -4,51 0,60c7,18 33,9 46,-16z"></path></g></g></g></svg>