<svg version="1.1" xmlns="http://www.w3.org/2000/svg" xmlns:xlink="http://www.w3.org/1999/xlink" width="1280.000000pt" height="640.000000pt" viewBox="0,0,256,128"><g fill="#6c94dc" fill-rule="nonzero" stroke="none" stroke-width="1" stroke-linecap="butt" stroke-linejoin="miter" stroke-miterlimit="10" stroke-dasharray="" stroke-dashoffset="0" font-family="none" font-weight="none" font-size="none" text-anchor="none" style="mix-blend-mode: normal"><g transform="translate(0,0.11656) scale(0.2,0.2)"><g transform="translate(0,640) scale(0.1,-0.1)"><path d="M5910,3694c-167,-32 -281,-134 -297,-264c-13,-113 101,-228 160,-162c27,29 20,56 -23,95c-22,19 -40,42 -40,50c0,26 58,94 96,112c54,26 138,24 197,-4c102,-49 176,-205 147,-310c-32,-121 -212,-207 -377,-181c-90,14 -137,30 -335,111c-215,89 -269,103 -378,97c-104,-6 -159,-26 -305,-113c-61,-35 -118,-65 -127,-65c-10,0 -18,-5 -18,-11c0,-14 -101,-58 -189,-80c-135,-34 -327,-20 -519,40c-56,17 -87,32 -87,41c0,17 97,74 175,103c80,30 325,30 420,0c36,-12 74,-24 85,-27c11,-4 -3,5 -31,19c-88,43 -195,65 -318,65c-141,-1 -175,-9 -318,-77l-117,-56l-153,76c-84,42 -247,125 -363,184c-297,153 -479,216 -715,249c-288,40 -427,-7 -920,-311c-261,-161 -408,-239 -482,-255c-167,-36 -376,-30 -544,14c-90,24 -232,86 -324,141l-45,27l30,-25c83,-71 279,-163 432,-204c88,-24 116,-26 278,-27c177,0 182,0 272,32c107,37 192,78 434,212c381,212 536,278 676,287c200,14 503,-62 756,-188c142,-71 518,-272 522,-279c8,-13 -46,-47 -148,-94c-146,-68 -191,-80 -287,-79c-170,4 -333,64 -695,258c-273,146 -396,195 -490,195c-77,0 -123,-15 -182,-59c-68,-51 -93,-105 -93,-201c0,-146 39,-211 164,-275c73,-37 85,-40 160,-40c96,0 160,26 209,87c65,81 32,234 -47,214c-39,-10 -41,-35 -4,-73c31,-32 32,-35 18,-61c-56,-99 -202,-92 -269,14c-36,56 -48,122 -31,164c19,46 73,88 123,95c77,12 157,-17 432,-154c292,-146 399,-190 539,-220c178,-39 327,-22 460,53c23,13 86,49 142,80l101,57l46,-20c161,-69 371,-119 537,-128c181,-9 271,15 615,165c110,48 172,64 247,63c77,0 110,-10 338,-101c107,-43 213,-83 235,-89c69,-20 198,-41 250,-41c134,1 304,67 408,160l57,52l58,-52c103,-93 273,-159 407,-160c52,0 181,21 250,41c22,6 135,49 251,95c127,50 234,87 270,92c92,12 185,-7 307,-62c310,-141 380,-161 567,-160c182,0 309,25 513,101c63,23 69,24 92,9c71,-47 237,-130 301,-151c133,-45 322,-27 528,51c50,19 208,93 351,165c275,137 355,166 432,154c84,-12 142,-92 128,-174c-22,-130 -162,-211 -256,-148c-18,12 -40,35 -49,49c-14,26 -13,29 18,61c37,38 35,63 -4,73c-44,11 -84,-45 -84,-120c0,-58 46,-120 115,-155c41,-22 63,-26 131,-26c75,0 87,3 160,40c85,44 135,96 154,163c17,61 12,181 -9,227c-36,81 -145,145 -246,145c-117,0 -193,-30 -510,-200c-257,-138 -392,-198 -526,-231c-109,-27 -226,-29 -299,-5c-91,31 -260,114 -260,128c0,7 51,39 113,71c61,31 201,103 310,160c304,160 501,230 723,258c243,30 367,-10 853,-281c242,-134 327,-175 434,-212c90,-32 95,-32 272,-32c162,1 190,3 278,27c153,41 349,133 432,204l30,25l-45,-27c-92,-55 -234,-117 -324,-141c-168,-44 -377,-50 -544,-14c-74,16 -221,94 -482,255c-493,304 -632,351 -920,311c-236,-33 -418,-96 -715,-249c-115,-59 -288,-146 -384,-193l-173,-86l-137,65c-162,79 -192,86 -337,87c-123,0 -230,-22 -318,-65c-28,-14 -42,-23 -31,-19c120,37 164,46 250,51c140,8 232,-8 330,-58c89,-46 135,-76 135,-89c0,-12 -117,-46 -224,-65c-123,-21 -246,-19 -341,5c-98,25 -225,85 -225,106c0,9 -6,14 -13,11c-8,-3 -61,22 -118,54c-128,73 -207,99 -303,99c-95,0 -155,-17 -354,-99c-198,-81 -245,-97 -335,-111c-165,-26 -345,60 -377,181c-29,105 45,261 147,310c59,28 143,30 197,4c38,-18 96,-86 96,-112c0,-8 -18,-31 -40,-50c-44,-40 -51,-70 -22,-96c65,-59 172,51 159,163c-8,67 -37,119 -97,173c-166,150 -469,111 -640,-81l-50,-56l-50,56c-57,64 -126,110 -215,144c-61,22 -177,37 -225,28z"></path></g></g></g></svg>