<svg version="1.1" xmlns="http://www.w3.org/2000/svg" xmlns:xlink="http://www.w3.org/1999/xlink" width="1280.000000pt" height="640.000000pt" viewBox="0,0,256,128"><g fill="#6c94dc" fill-rule="nonzero" stroke="none" stroke-width="1" stroke-linecap="butt" stroke-linejoin="miter" stroke-miterlimit="10" stroke-dasharray="" stroke-dashoffset="0" font-family="none" font-weight="none" font-size="none" text-anchor="none" style="mix-blend-mode: normal"><g transform="translate(0.05016,-0.23385) scale(0.2,0.2)"><g transform="translate(0,640) scale(0.1,-0.1)"><path d="M4527,4402c-126,-247 -166,-312 -230,-379c-32,-34 -50,-44 -86,-49c-156,-21 -351,-87 -604,-204c-86,-40 -160,-71 -163,-68c-3,3 -21,50 -40,103c-32,90 -53,186 -130,585c-25,129 -29,141 -37,110c-21,-86 -8,-636 19,-757c2,-13 1,-23 -3,-23c-5,0 -62,47 -128,105c-119,105 -204,158 -275,172c-29,5 -33,4 -24,-8c6,-8 53,-66 104,-129c51,-63 115,-148 141,-188c54,-82 89,-164 73,-169c-24,-8 -194,-109 -336,-200c-83,-53 -187,-115 -232,-139c-82,-44 -205,-94 -230,-94c-19,0 -61,99 -85,200c-11,47 -34,141 -50,210c-16,69 -40,148 -52,175l-22,50l-10,-50c-7,-35 -6,-122 3,-282c13,-250 9,-338 -21,-420c-28,-74 -39,-80 -91,-47c-24,15 -142,77 -263,137c-121,60 -251,127 -288,150l-68,42l7,65c14,135 65,256 199,470c83,132 141,247 131,257c-14,15 -180,-173 -284,-322c-119,-171 -198,-270 -206,-257c-2,4 -9,43 -15,87c-6,43 -22,103 -35,132c-57,122 -175,263 -223,263c-7,0 12,-49 42,-113c72,-148 96,-243 98,-379c1,-58 0,-109 -3,-111c-3,-3 -37,4 -75,15c-52,15 -110,22 -223,25c-232,8 -348,-15 -609,-119c-152,-60 -203,-93 -203,-129c0,-24 -3,-24 72,6c303,118 683,112 1065,-19c154,-53 276,-106 423,-186c86,-46 235,-134 248,-145c8,-7 -204,-66 -277,-76c-106,-15 -384,-6 -506,15c-178,32 -554,138 -628,178c-10,5 -21,8 -23,5c-8,-8 139,-100 244,-152c224,-110 515,-195 787,-230c89,-12 85,-7 85,-98c0,-114 -22,-240 -70,-396c-23,-73 -44,-141 -46,-150c-3,-9 15,7 41,34c58,63 121,186 175,340c90,256 98,273 133,283c18,5 104,39 193,76l161,68l134,-45c74,-25 206,-62 294,-82c425,-99 460,-109 457,-130c-1,-11 -5,-62 -9,-113c-5,-84 -4,-92 11,-86c24,9 43,51 56,124c22,126 23,127 93,135c131,15 279,60 566,174l53,22l-7,-48c-4,-26 -24,-106 -46,-177c-21,-72 -39,-137 -39,-145c0,-25 67,47 125,134c29,44 89,154 132,245l80,165l229,152c126,83 268,170 315,193l86,43l119,-90c254,-192 388,-265 532,-293l44,-8l-34,35c-18,19 -100,85 -183,147c-159,119 -232,191 -270,266l-23,46l108,57c59,31 139,70 178,86c60,25 73,27 82,15c16,-18 110,-61 237,-108c248,-92 268,-185 112,-528c-28,-62 -62,-143 -75,-180c-24,-67 -32,-152 -16,-162c5,-3 49,68 98,157c83,150 179,294 217,325c14,12 16,8 22,-30c4,-24 1,-107 -5,-183c-6,-76 -9,-159 -5,-183c7,-48 24,-92 35,-92c9,0 35,115 65,290c36,206 86,343 118,324c6,-4 131,-84 277,-177c302,-193 440,-287 440,-298c0,-4 -46,-57 -103,-117c-94,-99 -179,-212 -159,-212c20,0 109,66 208,155c60,54 131,112 158,131l49,33l46,-23c25,-13 89,-39 142,-60c53,-20 117,-50 142,-66c52,-35 47,-16 77,-310c24,-240 51,-421 61,-415c11,7 27,118 34,240c11,172 40,298 74,319c4,3 23,-35 41,-84c30,-87 81,-160 109,-160c7,0 11,37 11,118c0,143 6,156 66,142c54,-12 382,-31 503,-29l94,2l48,-82c26,-44 60,-97 75,-116c45,-59 105,-93 133,-76c11,7 8,19 -19,62c-29,48 -80,167 -80,188c0,4 26,4 58,0c59,-8 135,-3 352,26c184,25 299,7 354,-54c16,-18 16,-21 -3,-60c-47,-90 -115,-145 -307,-246c-61,-31 -122,-66 -135,-77l-24,-19l50,7c139,18 320,88 547,209l161,86l41,-15c93,-34 209,-50 376,-50c91,-1 195,3 233,7l67,8v-104c0,-127 9,-199 24,-194c6,2 20,19 30,37c16,27 21,60 25,163l6,130l85,18c101,21 146,36 352,122c271,114 388,139 541,117c48,-7 87,-17 87,-23c0,-25 -95,-133 -249,-284c-91,-89 -160,-163 -153,-163c20,0 145,65 210,109c31,21 109,80 172,130c93,74 185,134 242,159c16,7 7,-59 -22,-171c-30,-115 -37,-181 -22,-191c13,-8 69,92 123,221c62,144 101,214 138,246c25,21 54,27 232,51c432,57 542,79 659,134l65,30l-45,1c-25,1 -153,-8 -285,-20c-306,-26 -651,-29 -781,-6c-154,28 -154,25 3,95c76,33 214,95 307,137c317,143 554,219 781,247l110,15l-55,12c-30,7 -111,15 -180,18c-191,8 -383,-28 -674,-127c-66,-22 -121,-38 -124,-36c-2,3 6,41 17,86c24,92 54,155 149,315c63,107 106,194 99,201c-2,2 -26,-11 -52,-28c-118,-78 -221,-216 -385,-517c-57,-104 -103,-176 -115,-181c-11,-5 -81,-27 -155,-49c-143,-44 -264,-64 -324,-54c-33,5 -39,12 -82,92c-83,151 -173,280 -269,380c-80,82 -215,194 -215,177c0,-3 30,-46 66,-97c127,-175 181,-300 191,-437l6,-82l-34,7c-19,5 -92,8 -164,7c-111,0 -160,-7 -337,-42c-162,-33 -229,-42 -308,-42h-102l7,33c4,17 17,68 30,112c31,108 41,175 26,175c-23,0 -62,-34 -85,-74c-13,-23 -38,-85 -55,-138c-40,-120 -79,-178 -121,-178c-16,0 -91,-13 -167,-29c-130,-28 -189,-36 -240,-32c-21,1 -22,2 -9,45c8,25 34,83 60,130c25,47 66,123 90,169c40,73 82,194 72,204c-6,7 -97,-94 -202,-222c-107,-131 -240,-292 -260,-314c-10,-11 -45,10 -211,131c-236,173 -343,246 -481,324c-56,32 -102,64 -102,70c0,26 63,133 108,184c27,30 97,93 155,140c58,46 104,86 102,88c-9,9 -136,-32 -191,-63c-35,-20 -120,-80 -191,-135c-252,-196 -360,-226 -559,-154l-41,15l8,42c4,23 15,71 23,107c24,98 17,200 -13,200c-14,0 -37,-66 -56,-160c-48,-244 -80,-281 -225,-265c-74,8 -129,36 -183,94c-58,62 -94,135 -168,337c-33,90 -75,191 -94,223c-34,58 -107,131 -131,131c-7,0 3,-39 28,-107c51,-141 68,-213 68,-296v-69l-47,42c-160,141 -368,206 -953,300c-107,17 -197,33 -199,36c-2,2 3,40 11,83c17,86 70,203 162,360c30,51 62,113 70,138c15,44 15,44 -7,38c-86,-26 -153,-111 -272,-344c-149,-291 -202,-341 -363,-341c-81,0 -175,31 -335,112c-67,33 -151,72 -187,84c-61,22 -65,25 -62,51c2,15 23,151 48,300c25,150 44,287 42,305c-3,29 -19,2 -121,-200zM4360,3722c0,-17 -84,-88 -191,-161c-61,-42 -123,-91 -137,-109l-26,-34l50,7c89,13 167,43 324,124c198,101 245,115 367,109c52,-3 96,-8 100,-12c10,-9 -34,-53 -102,-101c-62,-44 -335,-196 -485,-270c-179,-89 -260,-84 -537,34c-143,60 -203,79 -203,64c0,-15 52,-79 85,-106c17,-13 57,-41 90,-61c66,-42 135,-104 135,-121c0,-14 -155,-142 -256,-211c-132,-91 -270,-149 -413,-174c-34,-6 -64,-10 -66,-8c-2,2 4,32 13,67c13,56 14,81 4,185c-22,221 -15,262 53,331c59,59 150,112 425,252c340,172 433,201 648,202c67,1 122,-3 122,-7zM5915,3574c184,-31 391,-118 617,-257c57,-35 171,-106 253,-157c83,-52 151,-95 153,-96c2,-1 -12,-40 -31,-85c-40,-96 -25,-93 -177,-42c-151,50 -447,199 -730,368c-135,80 -298,172 -362,203c-64,31 -117,60 -117,64c-2,20 280,22 394,2zM2923,3005c27,-104 47,-223 47,-281v-52l-71,-7c-126,-13 -279,9 -450,65c-94,30 -128,45 -119,53c39,34 227,165 277,194c110,61 234,105 283,99c9,-1 21,-27 33,-71zM7290,2928c0,-13 -14,-71 -32,-130l-32,-106l-98,49c-109,55 -116,66 -76,125c37,53 101,80 201,83c32,1 37,-2 37,-21zM7737,2940c138,-12 235,-32 321,-66c37,-15 68,-27 69,-28c1,-1 9,-58 17,-126c9,-69 20,-140 26,-159c5,-19 7,-37 4,-40c-3,-3 -74,-6 -157,-5c-123,0 -187,7 -337,33c-102,17 -196,34 -209,37l-24,5l6,162c3,89 9,170 12,180c6,14 20,17 84,17c42,0 126,-5 188,-10zM8396,2723c27,-9 71,-29 98,-45c62,-37 206,-146 206,-157c0,-8 -92,-25 -200,-37c-49,-5 -165,8 -178,20c-4,4 19,236 23,236c1,0 24,-8 51,-17zM10569,2575c86,-13 176,-25 201,-27l45,-3l-54,-32c-30,-17 -138,-60 -240,-94c-102,-34 -198,-68 -214,-76c-26,-13 -28,-12 -37,13c-6,15 -15,47 -21,73c-12,55 -47,131 -60,131c-21,0 3,20 34,29c57,17 186,11 346,-14zM9876,2501c55,-25 106,-71 148,-136c60,-90 64,-85 -65,-85c-63,0 -130,3 -149,6c-36,6 -36,6 -59,96c-30,114 -23,138 41,138c24,0 61,-9 84,-19zM9564,2465c3,-8 1,-27 -4,-41c-6,-14 -10,-36 -10,-50c0,-33 -32,-32 -138,4c-73,25 -81,30 -67,42c16,13 164,58 196,59c9,1 19,-6 23,-14z"></path></g></g></g></svg>