<svg version="1.1" xmlns="http://www.w3.org/2000/svg" xmlns:xlink="http://www.w3.org/1999/xlink" width="8472.000000pt" height="678.000000pt" viewBox="0,0,256,20.475"><g fill="#6c94dc" fill-rule="nonzero" stroke="none" stroke-width="1" stroke-linecap="butt" stroke-linejoin="miter" stroke-miterlimit="10" stroke-dasharray="" stroke-dashoffset="0" font-family="none" font-weight="none" font-size="none" text-anchor="none" style="mix-blend-mode: normal"><g transform="translate(0.1643,-0.4896) scale(0.03022,0.03022)"><g transform="translate(0,678) scale(0.1,-0.1)"><path d="M41779,5133c-283,-302 -699,-744 -924,-983c-582,-619 -615,-654 -620,-648c-2,2 -16,43 -30,91c-83,287 -340,607 -654,814c-303,200 -760,366 -1234,447c-395,68 -847,96 -1264,78c-718,-32 -1361,-139 -2508,-417c-907,-220 -1440,-316 -1974,-356c-206,-15 -705,-7 -871,15c-375,50 -673,135 -969,277c-313,150 -412,243 -671,631c-155,231 -228,325 -320,411c-122,116 -218,167 -312,167c-92,0 -160,-49 -207,-150c-24,-50 -26,-66 -26,-185c1,-137 15,-220 62,-364c13,-40 22,-75 20,-78c-2,-2 -58,2 -124,8c-259,26 -542,-30 -793,-156c-235,-118 -412,-269 -591,-505l-26,-34l-74,51c-144,98 -307,166 -473,194c-101,17 -342,7 -438,-19c-173,-47 -311,-117 -447,-226l-77,-62l-50,33c-73,51 -197,108 -299,139c-84,26 -103,28 -270,28c-158,1 -189,-2 -259,-22c-188,-54 -341,-144 -477,-281c-167,-168 -274,-374 -320,-621c-20,-104 -15,-328 8,-440c103,-480 459,-825 922,-891c217,-31 476,29 669,154c40,26 76,47 81,47c5,0 15,-8 22,-17c29,-35 177,-137 259,-178c322,-161 671,-163 995,-6c55,27 129,70 164,96l64,47l21,-28c248,-341 601,-574 987,-649c112,-22 342,-30 453,-16c49,6 91,9 93,8c2,-2 -9,-32 -23,-67c-61,-151 -89,-414 -52,-486c30,-56 108,-133 163,-160c46,-22 65,-26 118,-22c121,7 186,54 385,275c319,355 801,600 1392,707c290,52 404,61 850,61c416,0 508,-5 905,-45c587,-61 972,-120 2100,-326c715,-130 1243,-214 1540,-245c180,-19 720,-16 925,5c1157,118 1989,525 2436,1192c108,162 190,346 210,475c4,22 10,38 14,37c4,-2 335,-352 736,-778c401,-427 857,-912 1013,-1078c157,-166 288,-301 292,-300c4,2 462,486 1017,1077c555,590 1013,1072 1018,1070c5,-2 18,-42 30,-89c35,-135 68,-209 167,-370c214,-348 567,-648 1012,-861c418,-199 878,-318 1455,-375c214,-22 742,-24 925,-5c302,31 793,111 1650,266c911,165 1149,204 1595,259c567,71 905,96 1301,96c679,0 1167,-94 1614,-311c267,-130 461,-280 713,-556c86,-94 114,-118 174,-147c146,-73 267,-39 374,106l44,60v103c0,121 -17,221 -59,342c-17,48 -29,89 -27,90c1,2 41,-2 87,-8c51,-7 142,-9 234,-6c284,12 539,94 775,251c164,110 276,218 438,425l18,24l55,-42c74,-58 278,-156 372,-180c43,-11 125,-26 182,-32c288,-34 603,67 842,268c28,23 53,43 56,43c3,0 29,-16 58,-36c82,-56 209,-113 317,-141c84,-23 117,-26 247,-26c130,0 163,3 247,26c180,48 329,131 465,260c175,166 296,395 338,635c17,97 20,308 5,399c-61,372 -292,690 -615,844c-162,78 -239,94 -440,94c-147,0 -182,-3 -255,-23c-96,-26 -239,-92 -317,-144l-52,-36l-52,45c-127,108 -287,193 -449,239c-117,32 -336,44 -458,24c-161,-26 -324,-91 -460,-183c-45,-32 -86,-57 -90,-56c-4,0 -29,32 -57,70c-72,100 -264,283 -375,358c-185,124 -401,212 -605,246c-109,19 -306,24 -426,12l-75,-7l27,82c65,201 84,420 44,526c-67,181 -234,222 -411,102c-129,-88 -251,-230 -434,-505c-243,-366 -348,-470 -608,-604c-309,-158 -669,-263 -1077,-313c-147,-18 -795,-18 -960,0c-567,61 -961,136 -1885,357c-980,235 -1538,336 -2175,391c-266,24 -824,24 -1075,0c-593,-55 -1046,-168 -1447,-361c-359,-173 -610,-389 -792,-682c-73,-118 -98,-172 -128,-277c-14,-53 -29,-96 -33,-96c-5,0 -201,207 -1534,1625c-285,303 -521,551 -525,553c-4,1 -239,-244 -522,-545zM29619,5177c45,-56 137,-182 206,-281c213,-303 289,-392 430,-501c325,-252 889,-441 1515,-507c160,-17 748,-17 925,0c551,53 956,126 1995,362c1198,272 1553,336 2130,386c242,20 791,15 1020,-10c482,-53 858,-140 1182,-272c639,-260 978,-677 978,-1205c0,-252 -120,-503 -358,-752c-393,-407 -1049,-717 -1772,-836c-286,-47 -406,-56 -735,-55c-457,0 -654,27 -1970,269c-1469,269 -2196,357 -2980,358c-473,1 -763,-24 -1109,-94c-632,-129 -1087,-380 -1421,-783c-106,-130 -139,-160 -161,-152c-23,9 -13,77 32,214c67,205 173,370 354,552c234,236 547,429 925,573c399,151 790,219 1255,219c350,-1 655,-34 1030,-113c107,-23 222,-43 255,-46c60,-5 115,8 115,26c0,25 -78,94 -240,215c-195,145 -330,273 -375,356c-52,97 -39,187 36,242c99,72 425,63 889,-27c833,-161 1597,-439 2483,-903c89,-46 168,-55 210,-22c28,23 35,56 17,90c-17,31 -90,68 -226,114c-406,136 -647,350 -784,695c-22,55 -40,107 -40,116c0,20 157,98 284,140c267,90 527,88 811,-6c206,-68 396,-168 780,-409c572,-359 838,-469 1180,-487c383,-19 601,163 631,529c12,151 -35,268 -153,379c-105,98 -247,153 -393,153c-100,-1 -174,-24 -300,-94c-198,-110 -347,-159 -511,-167c-180,-10 -286,24 -472,151c-242,164 -574,285 -902,327c-128,16 -400,13 -520,-5c-400,-62 -716,-248 -888,-522l-26,-42l-118,34c-430,126 -953,233 -1311,269c-175,17 -469,20 -592,5c-299,-37 -484,-138 -567,-308c-20,-43 -38,-78 -39,-80c-1,-2 -73,4 -160,13c-769,76 -1375,281 -1835,621c-127,93 -372,338 -453,453c-178,251 -311,548 -372,830c-31,145 -5,142 115,-12zM55105,5281c20,-33 -96,-404 -181,-580c-371,-774 -1166,-1252 -2315,-1395c-315,-39 -338,-40 -345,-19c-62,188 -218,301 -494,359c-120,25 -479,30 -685,9c-191,-18 -501,-69 -710,-115c-163,-36 -572,-140 -663,-168l-63,-20l-41,60c-50,75 -161,192 -232,247c-233,180 -545,273 -916,272c-427,0 -810,-113 -1155,-341c-174,-116 -270,-150 -422,-150c-167,0 -285,35 -538,161c-142,70 -195,91 -249,99c-225,35 -473,-95 -574,-299c-36,-74 -37,-77 -36,-191c1,-183 42,-304 141,-410c231,-250 758,-202 1319,120c60,34 219,131 354,215c135,84 281,173 325,198c129,74 342,173 445,206c186,60 220,65 425,65c175,-1 198,-3 289,-28c156,-42 386,-144 386,-171c0,-5 -20,-58 -43,-117c-138,-341 -383,-560 -768,-688c-138,-46 -211,-82 -240,-118c-26,-33 -24,-49 10,-83c55,-54 141,-37 314,65c187,109 643,315 1022,461c270,103 466,168 730,240c771,211 1367,281 1523,179c39,-25 62,-74 62,-130c0,-64 -16,-104 -75,-181c-57,-77 -121,-132 -353,-308c-101,-77 -192,-153 -201,-168c-15,-27 -15,-29 4,-43c31,-23 120,-14 375,39c762,158 1440,146 2043,-37c764,-231 1318,-669 1494,-1181c31,-90 54,-200 47,-220c-14,-37 -45,-12 -181,151c-151,179 -264,280 -443,396c-675,440 -1685,570 -3175,407c-496,-54 -982,-130 -1938,-305c-1179,-215 -1420,-249 -1817,-261c-824,-23 -1632,189 -2225,582c-145,97 -229,165 -349,283c-170,167 -281,333 -345,515l-36,102l1,175c1,156 4,186 27,275c173,648 905,1058 2127,1191c229,25 780,30 1020,10c574,-50 1008,-129 2210,-405c1129,-259 1663,-343 2265,-358c695,-16 1318,104 1809,348c276,138 425,275 654,598c292,415 363,500 387,462zM42646,4704c187,-198 573,-609 859,-913c286,-304 520,-556 520,-561c0,-4 -162,-180 -360,-391c-198,-211 -584,-622 -859,-913c-274,-292 -501,-532 -505,-534c-3,-1 -124,123 -267,275c-1209,1286 -1464,1558 -1464,1563c0,3 129,144 288,312c158,168 546,580 862,917c316,336 578,610 581,608c4,-1 159,-164 345,-363zM29135,4630c595,-69 1077,-537 1192,-1160c24,-130 24,-400 0,-525c-87,-450 -356,-822 -737,-1019c-209,-108 -403,-151 -640,-143c-351,12 -627,133 -881,386c-131,131 -187,206 -263,351l-52,100l-38,-50c-119,-155 -325,-283 -527,-325c-88,-19 -273,-19 -359,-1c-105,22 -226,74 -319,136c-79,53 -193,160 -234,219l-17,25l-34,-41c-87,-101 -280,-216 -418,-248c-193,-44 -392,-20 -563,68c-168,87 -315,244 -395,421c-61,134 -75,205 -75,381c0,124 4,175 19,228c85,315 301,546 596,639c65,20 95,23 230,23c149,0 159,-1 248,-32c104,-37 222,-100 222,-120c0,-8 -11,-35 -24,-61c-50,-99 -68,-179 -73,-322c-4,-124 7,-246 19,-210c3,8 20,62 38,120c36,115 108,267 164,344c94,132 245,251 386,305c230,89 517,93 728,11c86,-33 192,-95 244,-142l38,-33l-16,-90c-24,-132 -15,-306 19,-404c35,-100 43,-105 57,-35c47,240 133,480 220,612c272,413 764,647 1245,592zM55845,4615c318,-60 624,-254 823,-520c103,-137 192,-355 242,-595c31,-145 29,-142 57,-83c51,111 64,260 37,440c-17,119 -25,101 76,172c188,131 416,183 666,151c343,-43 594,-227 739,-543c37,-81 95,-251 95,-279c0,-10 4,-18 9,-18c13,0 25,161 18,254c-8,99 -27,177 -71,278l-34,77l47,30c208,134 500,160 736,65c247,-99 441,-326 517,-605c32,-118 32,-345 -1,-464c-45,-169 -138,-324 -263,-439c-327,-303 -807,-297 -1131,15l-72,69l-24,-33c-44,-59 -157,-163 -230,-211c-88,-59 -212,-110 -317,-132c-120,-25 -321,-15 -434,21c-182,58 -358,181 -467,327l-20,27l-36,-72c-189,-381 -539,-656 -950,-744c-62,-14 -126,-18 -262,-18c-161,1 -191,4 -288,28c-124,31 -252,82 -348,138c-292,170 -525,457 -634,782c-92,276 -99,607 -19,886c159,549 606,943 1144,1010c98,13 294,6 395,-14z"></path><path d="M42181,3825c-102,-23 -187,-71 -271,-155c-123,-122 -180,-263 -180,-440c0,-177 57,-317 180,-440c178,-179 422,-218 643,-103c190,99 317,317 317,543c0,234 -132,453 -331,549c-124,59 -232,73 -358,46z"></path><path d="M28325,3154c9,-144 64,-262 169,-367c147,-146 357,-216 589,-196c280,25 534,226 585,464c16,75 20,128 11,150c-7,19 -8,19 -8,-1c-1,-12 -19,-58 -41,-102c-76,-150 -235,-272 -426,-323c-120,-33 -298,-31 -417,5c-49,14 -109,37 -135,50c-127,65 -249,192 -293,306c-38,99 -40,100 -34,14z"></path><path d="M30061,3188c0,-15 -13,-64 -27,-110c-135,-426 -521,-715 -984,-735c-421,-19 -805,195 -1003,557c-40,73 -97,234 -97,274c0,14 -5,26 -12,26c-20,0 -2,-240 26,-351c96,-379 381,-670 757,-775c139,-38 353,-44 499,-14c464,96 805,475 850,948c6,65 7,127 1,157c-5,30 -9,39 -10,23z"></path><path d="M26320,3018c0,-69 27,-178 62,-248c21,-45 56,-90 112,-146c137,-137 307,-204 519,-204c336,0 621,212 673,500c16,91 17,130 4,130c-5,0 -10,-8 -10,-19c0,-10 -16,-52 -37,-92c-76,-155 -242,-279 -438,-330c-103,-26 -269,-28 -375,-4c-226,51 -423,215 -485,403c-9,28 -18,52 -21,52c-2,0 -4,-19 -4,-42z"></path><path d="M26166,3015c-30,-110 -140,-235 -257,-292c-99,-49 -179,-67 -294,-66c-175,0 -319,57 -430,168c-56,56 -115,153 -115,189c0,9 -5,16 -10,16c-14,0 -2,-103 21,-168c41,-119 129,-216 254,-277c96,-47 173,-65 280,-65c177,0 307,51 421,165c44,43 80,91 96,125c30,63 52,162 46,205l-4,30z"></path><path d="M54914,3150c12,-144 68,-263 171,-364c149,-146 365,-217 592,-195c276,27 516,216 579,454c14,53 21,171 10,182c-3,3 -6,-5 -6,-19c0,-44 -69,-167 -132,-234c-257,-275 -728,-295 -1029,-43c-61,51 -139,167 -163,242c-10,31 -20,57 -23,57c-3,0 -3,-36 1,-80z"></path><path d="M56646,3167c-19,-122 -92,-281 -186,-405c-143,-190 -345,-321 -599,-390c-86,-23 -114,-26 -271,-26c-159,1 -184,3 -275,28c-114,31 -253,94 -346,156c-95,64 -245,221 -303,318c-56,94 -112,235 -122,305c-4,26 -11,47 -17,47c-7,0 -8,-43 -4,-127c10,-209 64,-384 170,-547c144,-221 364,-382 617,-451c140,-39 354,-45 500,-15c464,96 809,480 849,948c5,59 6,130 2,157l-7,50z"></path><path d="M56900,3019c0,-119 51,-259 129,-352c133,-159 332,-247 562,-247c394,0 705,286 680,625c-1,11 -12,-10 -24,-47c-92,-269 -407,-441 -744,-407c-165,17 -313,82 -425,187c-77,73 -120,136 -149,219c-26,74 -29,76 -29,22z"></path><path d="M58421,2995c-2,-187 144,-372 352,-445c86,-31 267,-39 357,-16c230,57 394,233 406,432c4,79 4,79 -10,37c-51,-154 -200,-282 -386,-330c-85,-22 -235,-22 -320,0c-97,26 -183,72 -252,135c-69,64 -102,112 -128,186l-19,51z"></path><path d="M22360,3964c-223,-7 -1010,-32 -1750,-54c-740,-22 -1788,-54 -2330,-70c-542,-16 -1509,-46 -2150,-65c-2071,-62 -3819,-115 -4490,-135c-360,-11 -959,-29 -1330,-40c-371,-11 -895,-27 -1165,-35c-269,-8 -717,-22 -995,-30c-537,-16 -1184,-35 -1990,-60c-420,-13 -1964,-59 -3170,-95c-184,-5 -578,-17 -875,-25c-1173,-34 -1080,-29 -1120,-56c-33,-23 -35,-27 -35,-81c0,-52 3,-59 30,-78c16,-12 44,-23 62,-26c18,-2 204,-8 413,-14c876,-24 1504,-42 2410,-70c528,-17 1973,-61 3210,-100c1238,-39 2828,-88 3535,-110c707,-22 1497,-47 1755,-55c259,-8 688,-22 955,-30c267,-8 847,-26 1290,-40c443,-14 951,-30 1130,-35c179,-6 539,-17 800,-25c261,-9 1706,-53 3210,-100c1504,-47 2869,-89 3032,-95c324,-11 476,-4 655,31c395,76 673,292 748,580c26,100 17,252 -22,350c-111,283 -391,477 -800,555c-121,23 -500,26 -1013,8zM23443,3620c229,-46 377,-162 377,-296c0,-134 -127,-241 -358,-300c-126,-33 -273,-40 -562,-25c-124,6 -560,27 -970,46c-410,19 -1035,48 -1390,65c-1167,54 -1711,80 -2025,95c-170,8 -650,31 -1065,50c-1333,62 -2237,105 -2559,120c-172,8 -335,15 -362,15c-37,0 -49,4 -49,15c0,12 20,15 118,15c101,0 762,17 2362,60c206,5 974,26 1705,45c732,19 1492,39 1690,45c198,5 632,17 965,25c333,9 808,22 1055,29c722,21 947,20 1068,-4z"></path><path d="M61345,3973c-82,-7 -213,-35 -310,-64c-361,-111 -604,-353 -644,-641c-38,-276 120,-533 419,-683c161,-81 343,-127 565,-145c127,-9 -11,-13 4910,140c3941,123 4805,150 5455,170c349,11 928,29 1285,40c358,11 862,27 1120,35c259,8 765,24 1125,35c360,11 867,27 1125,35c259,8 763,24 1120,35c358,11 1080,34 1605,50c2171,68 2597,81 3475,105c506,14 935,28 953,31c18,3 48,19 67,36c48,41 48,87 2,133c-42,42 -35,41 -582,55c-478,12 -1264,35 -2930,85c-638,19 -1686,51 -2330,70c-643,19 -1539,46 -1990,60c-451,14 -1124,34 -1495,45c-371,11 -970,29 -1330,40c-360,11 -1181,36 -1825,55c-643,19 -1465,44 -1825,55c-360,11 -956,29 -1325,40c-368,11 -1118,33 -1665,50c-547,16 -1598,48 -2335,70c-737,22 -1551,47 -1808,55c-434,14 -735,17 -832,8zM63136,3595c2189,-58 2677,-71 3594,-95c415,-11 1346,-36 2069,-55c723,-19 1316,-37 1318,-39c7,-7 -107,-15 -367,-26c-135,-6 -576,-26 -980,-45c-1314,-62 -2221,-104 -2985,-140c-412,-19 -1085,-51 -1495,-70c-410,-19 -1080,-51 -1490,-70c-410,-19 -896,-42 -1080,-51c-373,-17 -464,-13 -619,32c-153,45 -272,126 -307,209c-85,204 182,389 567,394c42,1 841,-19 1775,-44z"></path></g></g></g></svg>