<svg version="1.1" xmlns="http://www.w3.org/2000/svg" xmlns:xlink="http://www.w3.org/1999/xlink" width="2048.000000pt" height="151.000000pt" viewBox="0,0,256,18.875"><g fill="#6c94dc" fill-rule="nonzero" stroke="none" stroke-width="1" stroke-linecap="butt" stroke-linejoin="miter" stroke-miterlimit="10" stroke-dasharray="" stroke-dashoffset="0" font-family="none" font-weight="none" font-size="none" text-anchor="none" style="mix-blend-mode: normal"><g transform="translate(-0.00043,0.10131) scale(0.125,0.125)"><g transform="translate(0,151) scale(0.1,-0.1)"><path d="M10081,1479c-9,-24 -88,-198 -162,-357c-22,-46 -39,-86 -39,-87c0,-2 -22,-52 -50,-110c-27,-58 -50,-113 -50,-121c0,-17 298,-765 309,-777c4,-4 78,168 165,383l157,391l-87,192c-47,106 -100,221 -116,257c-17,36 -48,106 -70,155c-23,50 -42,92 -44,94c-2,2 -8,-7 -13,-20z"></path><path d="M9615,1193c-60,-64 -119,-120 -131,-125c-18,-8 -31,-4 -68,22c-239,164 -504,126 -747,-108l-67,-63l-60,58c-78,74 -151,118 -260,156c-76,26 -105,30 -228,35c-250,8 -378,-22 -1003,-237l-235,-81h-2915l-2916,1l-20,31c-36,57 -99,61 -149,12l-27,-27l-92,41c-50,22 -124,55 -163,73l-72,32l-220,-89c-122,-49 -218,-92 -214,-96c4,-3 104,-45 222,-93l215,-86l163,75l163,75l27,-30c46,-51 125,-40 157,21l16,30l2912,-2c1602,-2 2919,-6 2927,-9c8,-3 12,-4 8,-2c-15,9 -8,23 20,37c15,8 122,46 237,85c581,195 852,222 1147,111c106,-39 278,-169 278,-208c0,-9 -19,-34 -43,-56c-179,-172 -466,-247 -768,-201c-135,20 -497,110 -619,153c-8,3 -12,2 -9,-2c10,-11 353,-125 485,-161c203,-56 285,-69 444,-69c108,0 162,4 210,17c133,36 233,91 326,179l53,50l84,-74c159,-138 272,-188 427,-188c111,0 190,24 284,84c54,34 61,37 84,25c13,-8 82,-73 152,-146c105,-109 130,-130 140,-118c9,11 0,27 -50,82c-34,37 -99,102 -143,144l-82,77l48,50c26,28 47,54 47,57c0,3 -25,-15 -55,-40c-31,-25 -58,-45 -60,-45c-2,0 -39,25 -82,56c-43,31 -104,69 -135,85c-32,16 -58,31 -58,34c0,2 30,20 68,39c37,20 100,61 140,91c41,31 79,52 85,48c7,-3 35,-24 62,-47l50,-40l-47,50c-27,27 -48,54 -48,58c0,5 56,67 125,138c114,116 137,149 102,147c-7,0 -61,-52 -122,-116zM9262,1111c76,-20 178,-65 178,-79c0,-13 -139,-110 -203,-142c-34,-16 -82,-34 -107,-38c-54,-9 -68,-38 -23,-48c102,-22 203,-74 284,-144l44,-38l-65,-30c-171,-78 -348,-65 -500,38c-61,42 -200,183 -200,204c0,21 117,143 184,190c69,49 116,71 196,91c77,19 126,18 212,-4z"></path><path d="M10455,1300c-9,-14 35,-67 149,-180l96,-94l-48,-50c-49,-52 -45,-51 24,3l42,33l81,-61c45,-33 111,-74 147,-92l66,-33l-39,-19c-54,-27 -129,-74 -191,-121l-53,-39l-62,48c-44,34 -55,40 -37,19c14,-16 38,-40 53,-54l28,-25l-147,-148c-121,-121 -144,-150 -134,-162c10,-12 36,10 155,130c79,80 148,145 155,145c7,0 24,-8 38,-19c95,-66 203,-101 318,-101c89,0 160,17 245,61c57,28 184,125 228,173c14,14 27,26 30,26c4,0 33,-25 65,-55c151,-140 346,-205 576,-192c190,11 347,49 692,165c232,78 299,107 121,53c-160,-48 -310,-88 -448,-117c-110,-23 -154,-28 -285,-28c-167,0 -233,11 -359,61c-114,45 -281,168 -281,208c0,18 88,98 154,140c195,125 461,160 751,101c197,-41 590,-160 760,-231c38,-16 39,-18 20,-32c-20,-16 -20,-16 0,-7c11,5 1331,10 3073,12l3053,2l17,-30c34,-59 113,-71 156,-25c13,14 28,25 34,25c7,0 82,-32 168,-70l156,-70l102,41c55,22 150,61 211,85c60,24 113,48 117,52c5,5 -90,48 -212,97l-220,87l-158,-71c-86,-39 -161,-71 -166,-71c-4,0 -17,11 -27,25c-40,50 -135,38 -161,-21l-11,-24l-3066,2l-3066,3l-110,38c-60,22 -200,70 -310,109c-216,76 -451,139 -583,158c-50,8 -138,11 -220,7c-112,-4 -151,-9 -214,-31c-107,-36 -180,-79 -259,-153l-67,-64l-64,61c-244,233 -497,272 -746,114c-29,-19 -58,-34 -64,-34c-6,0 -67,56 -134,125c-67,69 -125,125 -128,125c-2,0 -8,-5 -11,-10zM11136,1119c106,-19 198,-72 302,-175c50,-51 92,-99 92,-107c0,-23 -76,-111 -144,-166c-177,-143 -355,-168 -561,-76c-69,30 -68,31 50,110c75,50 152,86 218,100c17,3 27,12 27,24c0,14 -10,20 -47,25c-27,3 -74,20 -107,36c-65,33 -206,131 -206,143c0,14 125,67 191,82c80,17 110,18 185,4z"></path><path d="M6868,793c7,-3 16,-2 19,1c4,3 -2,6 -13,5c-11,0 -14,-3 -6,-6z"></path></g></g></g></svg>