<svg version="1.1" xmlns="http://www.w3.org/2000/svg" xmlns:xlink="http://www.w3.org/1999/xlink" width="22" height="22" viewBox="0,0,256,256"><g fill="#33c2f0" fill-rule="nonzero" stroke="none" stroke-width="1" stroke-linecap="butt" stroke-linejoin="miter" stroke-miterlimit="10" stroke-dasharray="" stroke-dashoffset="0" font-family="none" font-weight="none" font-size="none" text-anchor="none" style="mix-blend-mode: normal"><g transform="translate(0,2.31932) scale(16,16)"><path d="M8,6.236l-0.894,-1.789c-0.222,-0.443 -0.607,-1.08 -1.152,-1.595c-0.536,-0.507 -1.178,-0.852 -1.954,-0.852c-1.676,0 -3,1.326 -3,2.92c0,1.211 0.554,2.066 1.868,3.37c0.337,0.334 0.721,0.695 1.146,1.093c1.108,1.04 2.486,2.334 3.986,4.064c1.5,-1.73 2.878,-3.024 3.986,-4.064c0.425,-0.398 0.81,-0.76 1.146,-1.093c1.314,-1.304 1.868,-2.159 1.868,-3.37c0,-1.594 -1.324,-2.92 -3,-2.92c-0.777,0 -1.418,0.345 -1.954,0.852c-0.545,0.515 -0.93,1.152 -1.152,1.595zM8.392,14.528c-0.09747,0.11547 -0.24089,0.18208 -0.392,0.18208c-0.15111,0 -0.29453,-0.06662 -0.392,-0.18208c-1.601,-1.902 -3.05,-3.262 -4.243,-4.381c-2.065,-1.939 -3.365,-3.158 -3.365,-5.227c0,-2.165 1.79,-3.92 4,-3.92c1.6,0 2.719,1.05 3.404,2.008c0.26,0.365 0.458,0.716 0.596,0.992c0.17299,-0.34543 0.37225,-0.67707 0.596,-0.992c0.685,-0.959 1.804,-2.008 3.404,-2.008c2.21,0 4,1.755 4,3.92c0,2.069 -1.3,3.288 -3.365,5.227c-1.193,1.12 -2.642,2.48 -4.243,4.38z"></path></g></g></svg>