<svg version="1.1" xmlns="http://www.w3.org/2000/svg" xmlns:xlink="http://www.w3.org/1999/xlink" width="1280.000000pt" height="640.000000pt" viewBox="0,0,256,128"><g fill="#6c94dc" fill-rule="nonzero" stroke="none" stroke-width="1" stroke-linecap="butt" stroke-linejoin="miter" stroke-miterlimit="10" stroke-dasharray="" stroke-dashoffset="0" font-family="none" font-weight="none" font-size="none" text-anchor="none" style="mix-blend-mode: normal"><g transform="translate(-1.23143,2.75518) scale(0.2,0.2)"><g transform="translate(0,640) scale(0.1,-0.1)"><path d="M6332,5521c-7,-4 -19,-30 -27,-57c-8,-28 -27,-68 -43,-90c-26,-36 -31,-38 -74,-35c-55,3 -88,-12 -88,-40c0,-10 11,-47 25,-81c14,-34 25,-70 25,-79c0,-28 -40,-48 -107,-55c-34,-4 -67,-10 -74,-15c-23,-14 7,-53 69,-90c82,-49 112,-78 112,-104c0,-32 -37,-59 -109,-79c-34,-9 -61,-21 -61,-25c0,-16 49,-50 138,-96c51,-26 97,-56 103,-68c6,-11 9,-39 6,-62c-7,-50 4,-63 98,-115c83,-46 105,-67 105,-104l-1,-31l-13,31c-13,29 -48,55 -158,117c-66,38 -90,72 -87,124c2,23 1,44 -2,47c-2,2 -44,9 -92,15c-115,14 -171,39 -194,85c-21,45 -49,47 -108,6c-49,-34 -80,-37 -145,-14c-48,17 -120,12 -178,-12c-48,-19 -38,-42 36,-84c165,-93 211,-174 137,-239c-20,-17 -40,-31 -45,-31c-19,0 -10,-30 13,-44c12,-8 55,-22 96,-31c40,-10 82,-26 92,-36c28,-28 25,-80 -6,-109c-29,-27 -49,-82 -40,-109c10,-31 38,-34 115,-10c54,16 89,20 154,18c47,-2 88,-7 91,-11c4,-4 0,-14 -9,-23c-9,-9 -16,-19 -16,-21c0,-16 28,-55 72,-100l50,-51l-74,-6c-44,-3 -78,-1 -86,6c-16,13 -44,0 -107,-47c-86,-66 -111,-60 -156,41c-33,74 -58,87 -97,50c-15,-13 -45,-28 -66,-32c-24,-4 -50,-18 -67,-36c-15,-16 -30,-26 -33,-21c-6,11 -47,149 -53,183c-6,33 13,69 71,137c83,97 52,156 -89,169c-113,10 -156,58 -170,186c-9,87 -23,103 -73,80c-20,-10 -59,-18 -87,-17c-44,0 -62,7 -142,58c-51,32 -100,56 -110,54c-24,-5 -22,-81 3,-129c23,-45 21,-125 -4,-176c-11,-21 -41,-62 -66,-90l-45,-50l40,-18c21,-10 57,-38 79,-61c33,-36 40,-51 40,-84c0,-50 -20,-91 -57,-118l-27,-20l104,-32c183,-57 230,-93 230,-180c0,-42 3,-49 24,-54c13,-3 39,-4 58,-1c33,5 32,5 -9,-14c-26,-12 -52,-35 -67,-60c-14,-21 -30,-42 -36,-46c-15,-9 -12,-25 5,-25c19,0 19,-14 1,-29c-11,-9 -15,-8 -20,5c-5,14 -16,15 -67,10c-86,-10 -109,6 -109,77c0,28 9,81 20,116c11,36 18,66 17,67c-1,1 -33,-2 -72,-7c-77,-10 -180,3 -227,27c-16,8 -53,37 -84,64c-38,35 -62,50 -82,50c-54,-1 -77,-23 -181,-177c-35,-51 -67,-93 -71,-93c-5,0 -18,-16 -30,-36c-32,-50 -18,-77 52,-99c82,-27 117,-45 123,-65c9,-28 -20,-75 -60,-100c-26,-16 -35,-28 -33,-44c4,-27 44,-40 162,-55c49,-6 95,-16 102,-22c9,-7 14,-32 14,-64v-53l-52,-6c-29,-4 -69,-9 -88,-12l-36,-5l4,39c3,34 -1,45 -31,79c-20,22 -75,59 -129,88c-51,27 -105,57 -120,68c-34,25 -63,18 -142,-36c-62,-42 -78,-46 -205,-50c-37,-2 -47,2 -65,26c-24,33 -35,157 -18,207l11,30h-50c-27,0 -64,6 -82,14c-47,19 -96,79 -103,126c-8,46 -20,49 -100,25c-65,-20 -93,-19 -132,5c-18,11 -39,20 -46,20c-21,0 -28,-46 -21,-135c7,-89 14,-70 -95,-243c-28,-44 -32,-57 -24,-79c8,-25 16,-28 89,-38c81,-12 131,-31 155,-60c19,-23 0,-58 -45,-79c-69,-33 -58,-59 47,-112c37,-19 68,-38 68,-43c0,-20 -68,-33 -105,-21c-61,20 -87,-9 -115,-127c-23,-99 -75,-124 -181,-86c-85,30 -140,-14 -111,-90c10,-27 10,-34 -4,-44c-44,-32 -262,-59 -321,-39c-27,9 -29,32 -7,64c12,17 19,20 34,12c30,-16 75,-12 102,10c30,23 39,45 73,165c13,50 36,123 50,163c23,66 26,89 26,210c-1,206 12,278 67,396c3,5 -7,6 -20,3c-30,-8 -42,1 -27,20c20,23 -21,15 -91,-18c-86,-41 -167,-69 -200,-69c-15,0 -43,6 -62,14c-27,12 -39,12 -58,3c-24,-12 -28,-23 -60,-146c-6,-24 -22,-54 -35,-67c-21,-21 -33,-24 -98,-24c-43,0 -78,-5 -85,-12c-24,-24 -12,-57 38,-107c82,-82 68,-117 -62,-166c-26,-10 -53,-24 -59,-31c-18,-22 -2,-57 35,-81c38,-24 89,-92 112,-151l16,-37l-48,49c-47,48 -48,48 -98,43c-28,-3 -80,-18 -116,-32c-40,-17 -88,-28 -126,-29c-33,-2 -66,-6 -72,-10c-7,-4 -12,-1 -12,8c0,17 73,97 103,113c18,9 17,12 -7,48c-54,79 -22,191 86,297c96,94 76,135 -61,125c-128,-10 -163,25 -136,139c28,123 14,161 -47,124c-105,-64 -201,27 -215,203c-9,118 -32,135 -95,70c-45,-46 -77,-115 -78,-164c0,-41 -18,-61 -88,-99c-55,-29 -61,-49 -31,-91c28,-40 35,-111 15,-169c-8,-25 -21,-67 -30,-93l-15,-48l27,-10c86,-31 101,-55 118,-197c9,-73 19,-111 34,-132c16,-23 18,-30 7,-30c-35,0 -67,83 -67,174c0,17 -5,47 -10,67c-9,32 -15,37 -49,43c-78,12 -100,56 -101,199c0,42 -6,82 -16,103l-16,34l-62,-54c-72,-63 -98,-74 -131,-52c-26,17 -40,55 -50,135c-8,69 -29,121 -50,121c-8,0 -30,-21 -48,-47c-45,-66 -73,-93 -96,-93c-11,0 -48,24 -82,53c-89,75 -96,79 -119,72c-11,-4 -31,-28 -45,-55c-29,-57 -53,-64 -179,-54c-113,9 -119,-6 -21,-51c42,-19 90,-44 106,-56c40,-28 89,-96 89,-124c0,-37 -49,-121 -85,-147c-44,-31 -33,-44 46,-58c30,-5 91,-16 135,-24c100,-17 124,-32 164,-103c47,-82 11,-98 -66,-31c-30,27 -38,29 -59,20c-14,-7 -25,-17 -25,-25c0,-26 60,-84 121,-117c61,-32 64,-33 153,-26c50,3 101,9 114,12c13,4 22,3 20,-2c-2,-5 4,-29 11,-52c10,-29 12,-49 5,-58c-5,-8 -45,-29 -89,-47c-161,-65 -188,-97 -106,-128c55,-20 93,-55 89,-83c-2,-13 -30,-39 -73,-69c-38,-26 -74,-55 -78,-63c-15,-27 8,-59 65,-92c29,-16 80,-54 113,-82c136,-118 201,-138 256,-79c16,17 29,36 29,43c0,26 65,87 124,116c48,24 156,53 224,60c2,0 -12,21 -31,48c-62,85 -82,144 -59,178c12,19 49,34 82,34c38,0 70,16 70,34c0,7 -23,44 -50,81c-28,38 -47,72 -43,76c12,12 81,-6 103,-26c24,-21 42,-72 29,-80c-12,-8 -12,-72 2,-80c5,-4 14,-18 19,-30c12,-31 47,-54 101,-64c29,-6 35,-9 18,-10c-14,-1 -40,-6 -58,-12c-24,-9 -30,-15 -25,-28c12,-26 17,-79 10,-106c-9,-35 -69,-90 -164,-148c-46,-28 -85,-54 -88,-58c-2,-4 14,-18 37,-31c48,-27 69,-62 69,-115c0,-44 -22,-85 -73,-133l-36,-34l42,-25c62,-36 99,-68 130,-114c24,-35 27,-49 27,-119c0,-63 3,-78 15,-78c8,0 15,-7 15,-17c0,-15 1,-15 18,0c10,10 27,17 38,17c11,0 42,23 69,51c69,70 92,80 172,77l68,-3l-1,45c-1,25 -4,68 -8,95c-6,42 -4,57 16,95c20,40 31,48 93,73c147,59 159,115 42,190c-94,62 -100,73 -103,189c-2,56 -1,105 2,110c3,5 17,-1 31,-12c50,-39 146,-20 196,39c31,37 34,66 11,99c-14,20 -14,23 0,28c9,3 56,-4 104,-17c97,-26 284,-32 334,-11l28,11l-36,-53c-38,-58 -55,-128 -34,-141c30,-19 82,-6 122,31c93,84 176,84 214,0c26,-57 57,-56 101,4c18,25 45,58 59,75l26,30l24,-28c13,-16 24,-41 24,-56c0,-37 40,-95 68,-99c33,-5 47,10 71,79c44,120 120,168 276,177l90,4l1,102c1,124 22,200 64,241l30,29l63,-23c107,-40 139,-39 237,11c47,24 90,43 95,44c25,2 76,42 86,68c11,26 61,66 83,66c11,0 -2,-86 -19,-125c-19,-47 -55,-73 -156,-116c-113,-49 -175,-99 -121,-99c34,0 91,-49 103,-88c20,-67 -23,-165 -109,-248c-40,-38 -67,-86 -55,-98c12,-12 59,-5 138,19c102,32 117,31 159,-6c44,-38 74,-35 101,9c72,118 80,127 112,130c25,3 41,-6 83,-43c70,-62 94,-59 98,12c2,29 -1,76 -6,104c-10,55 -1,107 20,121c25,15 62,7 125,-27c36,-20 69,-33 74,-30c15,10 10,85 -11,165c-33,126 -23,168 46,190l36,12l-5,52c-3,28 -11,81 -18,118c-14,77 -7,113 23,129c19,10 20,9 12,-7c-12,-26 -11,-137 3,-211c15,-80 3,-124 -42,-160c-19,-16 -35,-32 -35,-38c0,-5 22,-43 50,-83c66,-97 79,-141 58,-199c-14,-40 -14,-45 1,-63c9,-11 37,-24 63,-29c61,-11 96,-34 104,-69c23,-95 177,-208 201,-146c3,9 0,41 -7,72c-15,68 -16,176 -1,214c24,62 84,85 155,58c21,-8 27,-6 37,12c9,17 4,34 -30,102c-23,45 -41,85 -41,89c0,4 15,7 34,7c38,0 150,48 215,93c105,72 226,137 256,137c38,0 82,-43 118,-115c34,-69 59,-89 98,-81c27,5 30,4 19,-9c-22,-27 -2,-29 103,-12c145,25 193,23 238,-9c61,-42 86,-32 135,54c23,40 50,82 59,92c25,27 65,33 114,15c112,-39 149,6 85,105c-22,34 -28,55 -25,93c1,23 49,43 124,52c32,4 67,15 79,24c18,15 19,20 8,42c-7,13 -20,33 -30,44c-23,25 -49,105 -55,164l-5,46l25,-52c37,-78 63,-88 190,-74c78,9 109,9 131,0c16,-6 41,-11 57,-10c17,1 27,-4 27,-13c0,-16 -83,-72 -122,-81c-26,-7 -26,-7 -12,-41c20,-47 18,-73 -12,-132c-29,-58 -85,-112 -154,-147c-117,-60 -99,-125 39,-143c109,-15 127,-65 65,-182c-23,-44 -34,-78 -32,-97c3,-30 1,-30 84,-17c36,6 45,3 73,-22c48,-44 59,-117 36,-235c-15,-80 -15,-93 -3,-106c23,-22 63,-7 123,49c36,33 58,62 65,86c17,62 33,74 119,93c64,14 76,32 54,87c-22,57 -6,109 62,207l54,77l-45,42c-42,41 -44,45 -44,102c0,32 5,75 10,94c15,51 15,147 0,165c-20,24 -6,27 18,5c26,-25 28,-73 7,-170c-22,-99 -20,-119 13,-131c75,-29 86,-69 52,-199c-20,-76 -25,-126 -14,-153c4,-12 20,-7 80,24c86,45 104,47 129,18c21,-22 23,-55 10,-160c-9,-74 -2,-119 19,-119c7,0 41,22 75,50c36,29 73,50 86,50c26,0 59,-37 94,-107c11,-23 30,-48 42,-57c19,-13 25,-13 50,0c16,8 29,19 29,25c0,5 11,14 25,19c28,11 54,6 177,-31c119,-35 129,-7 36,91c-132,138 -147,267 -37,322c19,10 39,20 44,22c23,8 -34,47 -125,87c-121,51 -156,84 -175,165c-18,76 -18,74 4,74c10,0 33,-17 50,-37c17,-21 36,-42 40,-46c35,-34 53,-47 67,-47c9,0 43,-15 77,-34c98,-55 134,-60 209,-35c35,12 67,25 73,30c17,16 41,9 68,-19c44,-46 60,-104 61,-232l1,-115h80c152,-1 243,-56 285,-173c26,-73 56,-100 89,-82c24,12 51,60 51,90c0,34 29,80 50,80c12,0 33,-21 59,-58c21,-32 46,-64 54,-71c25,-20 50,-9 69,29c20,40 53,70 77,70c41,0 91,-23 131,-60c48,-44 100,-60 126,-39c23,19 13,78 -25,139l-31,50l27,-7c59,-17 254,-7 341,16c46,12 87,19 92,16c6,-4 3,-16 -6,-30c-32,-48 9,-116 88,-149c49,-21 66,-20 113,4c22,11 41,20 42,20c2,0 3,-46 3,-103c0,-123 -4,-131 -101,-193c-40,-25 -74,-55 -79,-69c-19,-50 24,-96 115,-125c61,-20 82,-38 101,-86c12,-32 15,-57 10,-91c-4,-27 -10,-64 -13,-84c-7,-51 12,-64 77,-50c70,15 97,1 195,-98c44,-45 87,-81 97,-81c24,0 32,33 30,123c-1,60 3,87 18,117c22,43 86,102 144,132l39,20l-36,32c-103,90 -102,212 3,256c16,7 30,16 30,21c0,4 -38,31 -85,59c-103,62 -141,93 -160,131c-18,33 -19,82 -4,111c14,26 4,36 -57,53c-48,13 -48,13 -14,15c52,2 86,21 116,65c23,34 26,46 20,93c-8,64 4,89 49,108c36,15 85,19 85,7c0,-3 -17,-29 -38,-57c-78,-103 -76,-120 8,-128c103,-10 118,-78 41,-190c-23,-33 -41,-63 -41,-67c0,-5 31,-13 70,-20c141,-23 239,-81 273,-163c21,-49 53,-73 97,-73c41,0 80,24 213,130c42,33 90,69 108,80c71,44 66,66 -31,135c-35,25 -68,53 -74,62c-16,25 21,69 75,89c24,9 48,24 54,34c14,23 -10,39 -132,91c-111,46 -123,59 -104,106c7,18 14,41 14,50c1,13 7,16 19,12c37,-11 182,-22 207,-14c52,15 108,49 144,89c43,47 46,68 15,80c-18,7 -29,4 -48,-14c-32,-29 -64,-45 -89,-45c-27,0 -26,5 12,69c46,77 68,90 183,108c113,16 163,28 184,44c13,9 13,11 0,16c-30,12 -77,69 -95,115c-15,40 -16,52 -5,78c21,50 109,122 189,154c39,16 70,34 68,40c-3,7 -34,10 -96,7c-129,-5 -154,2 -169,42c-14,40 -47,77 -68,77c-8,0 -46,-29 -84,-65c-93,-87 -121,-86 -180,5c-42,66 -64,78 -84,48c-18,-30 -24,-50 -35,-132c-11,-75 -38,-116 -76,-116c-24,0 -86,42 -124,84c-14,14 -28,26 -32,26c-20,0 -33,-53 -39,-155c-4,-64 -13,-119 -20,-132c-16,-25 -51,-43 -85,-43c-34,0 -43,-24 -55,-136c-10,-91 -28,-144 -49,-144c-5,0 -18,-3 -28,-7c-15,-5 -15,-3 4,18c31,34 42,69 52,171c5,52 15,98 25,113c20,30 73,65 99,65c9,0 17,2 17,5c0,3 -13,45 -30,95c-38,115 -38,154 -1,210c16,24 27,50 24,57c-3,8 -28,25 -55,39c-70,36 -88,57 -88,104c0,23 -11,61 -24,89c-23,45 -86,111 -106,111c-20,0 -38,-48 -43,-119c-7,-91 -45,-174 -91,-202c-40,-25 -53,-24 -112,6c-45,23 -50,24 -61,8c-17,-22 -16,-36 3,-122c28,-123 -2,-155 -131,-144c-60,5 -79,3 -100,-11c-38,-25 -31,-51 34,-116c111,-112 143,-233 82,-303l-30,-33l35,-19c56,-30 128,-133 77,-109c-10,4 -36,7 -58,6c-24,-1 -84,13 -147,34c-129,43 -153,40 -203,-19c-42,-51 -46,-31 -6,38c28,48 38,60 109,125c19,16 32,36 30,43c-2,6 -44,32 -94,57c-80,41 -89,48 -92,76c-3,25 5,39 47,79c58,57 67,79 40,106c-16,16 -32,19 -82,17c-98,-3 -123,21 -147,137c-21,105 -43,121 -126,89c-39,-15 -44,-14 -110,9c-38,13 -104,39 -146,57c-43,19 -81,30 -85,25c-5,-4 -3,-10 4,-12c7,-2 9,-11 6,-18c-4,-11 -10,-12 -25,-4c-11,6 -21,9 -23,7c-2,-2 7,-27 20,-55c33,-67 45,-157 45,-333c0,-149 3,-165 54,-320c14,-41 32,-101 41,-133c9,-31 28,-71 43,-88c28,-31 40,-34 122,-26c19,1 26,-5 34,-26c9,-24 7,-31 -9,-43c-34,-25 -171,-14 -293,24c-41,12 -51,19 -46,31c15,33 15,86 1,106c-19,25 -71,25 -126,0c-35,-16 -47,-16 -81,-6c-48,14 -63,36 -85,121c-9,36 -23,76 -32,88c-14,22 -19,23 -81,17c-51,-5 -72,-3 -87,8c-19,15 -19,16 10,32c125,70 135,76 135,95c0,13 -14,27 -40,40c-70,36 -75,77 -11,109c41,21 158,47 168,37c11,-11 43,26 43,50c0,12 -21,53 -46,91c-78,116 -87,140 -79,197c12,75 9,126 -8,143c-12,13 -18,12 -48,-6c-40,-25 -88,-27 -155,-6c-70,21 -72,20 -85,-31c-17,-66 -70,-119 -135,-132c-28,-6 -60,-9 -71,-6c-20,6 -20,3 -15,-84c5,-98 -8,-156 -38,-172c-12,-6 -53,-8 -105,-4c-80,7 -92,10 -153,51c-36,24 -78,43 -93,43c-15,0 -52,-15 -82,-32c-31,-18 -90,-52 -132,-76c-89,-50 -118,-88 -111,-145c4,-33 2,-38 -12,-32c-10,4 -49,9 -87,12l-71,6l-2,58c-3,71 -1,73 132,89c94,12 146,31 146,54c0,8 -17,28 -39,45c-21,17 -44,44 -51,61c-17,42 3,63 89,91c113,37 125,63 63,132c-22,23 -66,83 -99,133c-66,98 -122,154 -154,154c-30,0 -59,-18 -103,-63c-66,-67 -112,-82 -252,-81h-122l19,-54c10,-30 21,-75 25,-100c5,-39 2,-52 -17,-76c-22,-27 -25,-28 -85,-23c-88,8 -93,-1 -60,-100c14,-43 26,-81 26,-86c0,-18 -42,-4 -75,24c-28,25 -35,38 -35,69c0,22 7,43 16,51c13,11 15,24 10,67c-9,74 -20,90 -79,117l-52,23l60,-2l60,-1l5,50c3,28 13,62 23,76c24,35 94,72 202,104c50,15 94,29 98,32c4,3 -4,14 -18,25c-97,76 -56,216 79,268l28,10l-46,50c-26,28 -56,69 -66,93c-24,51 -25,131 -4,172c8,17 18,51 21,77c8,65 -11,71 -80,27c-80,-51 -177,-99 -201,-99c-11,0 -36,9 -54,20c-66,40 -85,25 -96,-79c-13,-114 -57,-165 -153,-176c-81,-9 -120,-23 -138,-48c-23,-33 -18,-64 19,-104c52,-59 86,-113 86,-140c0,-38 -34,-133 -38,-106c-3,21 -5,21 -44,7c-22,-8 -67,-14 -100,-14c-55,0 -63,3 -94,34c-28,28 -34,42 -34,75c0,23 -4,41 -10,41c-5,0 -57,-25 -115,-55c-91,-48 -112,-55 -161,-55c-31,0 -54,3 -52,8c2,4 10,19 17,34c13,25 12,30 -4,48c-24,26 -39,25 -92,-5c-39,-23 -43,-24 -43,-8c0,10 -17,37 -39,61c-29,32 -46,42 -69,42c-57,0 -94,86 -58,135c13,18 17,14 60,-53c52,-81 76,-91 101,-43c31,62 90,78 137,38c15,-12 45,-48 67,-80l39,-58l42,55c42,56 110,111 163,134c15,7 49,12 75,13c65,0 114,19 129,49c16,31 10,76 -28,200c-16,52 -29,108 -29,125c0,38 -25,75 -51,75c-11,0 -51,-16 -89,-35c-81,-41 -91,-42 -116,-14c-14,16 -19,34 -17,75c1,29 -3,56 -8,60c-20,12 -59,-7 -139,-71c-45,-36 -88,-65 -95,-65c-7,0 -31,15 -54,34l-40,34l33,43c50,65 76,119 76,160c0,54 -28,136 -52,154c-21,14 -24,13 -41,-4c-15,-15 -17,-23 -8,-39c13,-25 15,-89 2,-96c-15,-10 -92,90 -98,127c-3,22 5,63 26,126c27,80 40,151 27,151c-2,0 -20,-7 -39,-15c-49,-20 -146,-20 -176,1c-43,30 -71,109 -71,201c0,82 -5,98 -28,84zM6639,4553c-38,-68 -49,-82 -49,-63c0,14 68,120 77,120c2,0 -10,-26 -28,-57zM6329,3934c-26,-26 -27,-26 -60,-8l-34,18l25,7c14,4 41,7 60,8l35,1zM6695,3507c-13,-12 -49,-63 -78,-113c-30,-49 -75,-118 -100,-153l-46,-62l-22,43c-12,24 -33,58 -46,76c-22,30 -25,40 -19,85c9,61 23,74 48,42c56,-72 212,-2 208,94c-1,20 -2,39 -1,44c1,4 19,-2 41,-13l40,-21zM5158,3398c17,-17 15,-69 -4,-96c-18,-26 -70,-55 -84,-47c-9,5 -5,23 25,108c17,48 38,60 63,35zM5625,3260c44,-11 97,-20 118,-20c20,0 37,-4 37,-9c0,-4 -13,-25 -30,-46c-29,-37 -39,-78 -21,-89c5,-4 47,-13 93,-21c84,-14 118,-35 118,-72c0,-25 -52,-65 -149,-116l-91,-49l-44,26c-63,37 -131,117 -144,169c-11,41 -8,69 13,118c5,13 -2,18 -28,23c-37,7 -117,59 -117,76c0,6 15,10 33,10c17,0 39,5 47,10c23,15 77,12 165,-10zM4760,3061c0,-10 -26,-17 -95,-25c-57,-7 -45,1 30,19c65,17 65,16 65,6zM8285,2984c14,-6 -92,6 -110,12c-8,4 -15,10 -15,14c0,7 97,-13 125,-26zM1087,2653c-4,-3 -40,-8 -80,-9c-48,-2 -64,0 -47,6c30,10 136,13 127,3zM11945,2600c23,-6 12,-8 -42,-9c-43,-1 -73,3 -73,9c0,11 70,11 115,0z"></path></g></g></g></svg>